HIERARCHY
ROOT Hips
{
  OFFSET 98.2768 101.626 63.6559
  CHANNELS 6 Xposition Yposition Zposition Zrotation Xrotation Yrotation
  JOINT ToSpine
  {
    OFFSET -2.69724 7.43032 -0.144315
    CHANNELS 3 Zrotation Xrotation Yrotation
    JOINT Spine
    {
      OFFSET -0.0310711 10.7595 1.96963
      CHANNELS 3 Zrotation Xrotation Yrotation
      JOINT Spine1
      {
        OFFSET 13.1342 3.43533 0.764692
        CHANNELS 3 Zrotation Xrotation Yrotation
        JOINT Neck
        {
          OFFSET 29.8703 7.82586 -0.130764
          CHANNELS 3 Zrotation Xrotation Yrotation
          JOINT Head
          {
            OFFSET 9.52751 0.295786 -0.907742
            CHANNELS 3 Zrotation Xrotation Yrotation
            End Site
            {
              OFFSET 16.4037 0.713936 2.7358
            }
          }
        }
        JOINT LeftShoulder
        {
          OFFSET 27.5574 4.95586 2.47156
          CHANNELS 3 Zrotation Xrotation Yrotation
          JOINT LeftArm
          {
            OFFSET 1.20734 -0.998971 20.1238
            CHANNELS 3 Zrotation Xrotation Yrotation
            JOINT LeftForeArm
            {
              OFFSET 26.8049 -0.0536703 -0.155908
              CHANNELS 3 Zrotation Xrotation Yrotation
              JOINT LeftHand
              {
                OFFSET 26.6817 0 0.320147
                CHANNELS 3 Zrotation Xrotation Yrotation
                End Site
                {
                  OFFSET 18.6119 0 0.382219
                }
              }
            }
          }
        }
        JOINT RightShoulder
        {
          OFFSET 27.5927 4.71444 -2.65209
          CHANNELS 3 Zrotation Xrotation Yrotation
          JOINT RightArm
          {
            OFFSET 2.83739 -1.17114 -18.7564
            CHANNELS 3 Zrotation Xrotation Yrotation
            JOINT RightForeArm
            {
              OFFSET 28.839 -0.0548439 1.22491
              CHANNELS 3 Zrotation Xrotation Yrotation
              JOINT RightHand
              {
                OFFSET 26.5114 0 -0.101894
                CHANNELS 3 Zrotation Xrotation Yrotation
                End Site
                {
                  OFFSET 18.2168 0 0
                }
              }
            }
          }
        }
      }
    }
  }
  JOINT LeftUpLeg
  {
    OFFSET -4.76168 -1.9167 -10.2353
    CHANNELS 3 Zrotation Xrotation Yrotation
    JOINT LeftLeg
    {
      OFFSET 2.55951 -42.0585 -8.02213
      CHANNELS 3 Zrotation Xrotation Yrotation
      JOINT LeftFoot
      {
        OFFSET 3.16357 -42.5282 -3.95426
        CHANNELS 3 Zrotation Xrotation Yrotation
        JOINT LeftToeBase
        {
          OFFSET 0.346054 -6.02161 12.8035
          CHANNELS 3 Zrotation Xrotation Yrotation
          End Site
          {
            OFFSET 0.134235 -1.35082 5.13018
          }
        }
      }
    }
  }
  JOINT RightUpLeg
  {
    OFFSET -4.94151 -1.41743 10.6446
    CHANNELS 3 Zrotation Xrotation Yrotation
    JOINT RightLeg
    {
      OFFSET -2.56294 -42.0364 -7.94377
      CHANNELS 3 Zrotation Xrotation Yrotation
      JOINT RightFoot
      {
        OFFSET -3.0952 -42.555 -4.02241
        CHANNELS 3 Zrotation Xrotation Yrotation
        JOINT RightToeBase
        {
          OFFSET -0.0828122 -6.13587 12.8035
          CHANNELS 3 Zrotation Xrotation Yrotation
          End Site
          {
            OFFSET -0.131328 -1.35082 5.13018
          }
        }
      }
    }
  }
}
MOTION
Frames:	6
Frame Time:	0.0333333
73.0254 92.483 13.3277 72.3767 -40.2039 -10.7222 -70.1915 0 88.8779 86.0581 72.0294 -3.88019 2.4161 21.1933 2.15766 -119.086 30.8302 151.326 174.678 76.6597 -147.024 0.366672 -16.223 -20.8592 -64.1318 34.6689 -146.123 22.4716 -3.80993 -98.3787 0.420957 0.000574801 0.358661 -2.19391 7.23587 44.6312 -128.532 -5.31449 101.518 12.2244 -3.72417 73.2232 0.58676 0.000331143 0.0646654 -49.9893 9.89793 108.337 -3.11459 50.6091 -0.931271 3.88046 -18.8028 -1.45277 4.00372 -10.6349 10.8769 -41.5037 -14.2429 81.1405 0.773629 26.7628 6.4051 5.2644 7.99194 -1.51655 0.947452 -3.6568 -3.93823 
73.0088 92.4505 13.4202 72.5667 -39.8189 -10.4403 -70.1915 0 88.8779 85.6266 71.8931 -3.69608 2.57302 20.9767 2.32908 -119.916 31.0007 152.147 174.039 76.4062 -146.932 0.426681 -15.5516 -21.2026 -63.5956 34.4809 -145.865 22.0819 -3.80819 -98.5476 0.420957 0.000574801 0.358661 -2.1781 7.1831 44.6415 -128.258 -4.93283 101.694 11.4277 -3.57889 72.7823 0.58676 0.000331143 0.0646654 -49.8875 10.0177 108.133 -3.22497 50.8981 -1.30475 3.61772 -19.084 -1.47767 3.89673 -10.5248 11.3041 -41.4139 -14.4398 81.0975 0.942878 27.4446 5.89272 4.01782 8.42868 -1.31227 0.964563 -5.23248 -2.95984 
73.0237 92.4853 13.5905 72.692 -39.2854 -10.1167 -70.1915 0 88.8779 85.0841 71.7736 -3.06048 2.7475 20.957 1.83417 -120.865 30.5161 152.349 177.268 75.9258 -149.763 0.481202 -15.094 -21.1699 -62.6657 34.2541 -145.585 22.3017 -3.55915 -97.8646 0.420957 0.000574801 0.358661 -2.1657 7.18632 44.4609 -127.933 -4.71414 100.74 8.32356 -2.65979 72.4073 0.58676 0.000331143 0.0646654 -49.6099 10.1177 107.678 -3.43313 51.3035 -2.20799 1.9202 -19.0818 -1.54685 3.98126 -10.8888 12.8087 -41.6187 -14.3407 81.4795 0.890786 27.7321 5.26903 2.38633 8.90145 -1.02719 1.00813 -6.97232 -1.68982 
73.0455 92.4525 13.7283 72.9227 -38.8616 -9.68478 -70.1915 0 88.8779 85.4391 71.7191 -3.16445 2.59117 21.0319 1.40934 -120.897 30.6417 152.09 176.798 76.0759 -149.039 0.501171 -14.9913 -20.9821 -61.5283 34.5261 -145.196 22.4615 -3.20777 -96.9777 0.420957 0.000574801 0.358661 -2.11209 6.94028 44.7878 -127.483 -4.72403 99.9845 9.64614 -3.19134 71.8489 0.58676 0.000331143 0.0646654 -49.6207 10.2727 107.301 -3.54437 51.4919 -2.7339 2.02793 -19.0468 -1.5402 4.22568 -11.3555 13.3739 -41.8784 -14.3164 81.5276 0.90852 28.007 5.49103 2.81071 8.08339 -1.0339 1.01406 -6.22659 -2.4901 
73.1118 92.3835 13.8685 73.3445 -38.4191 -8.97216 -70.1915 0 88.8779 86.6367 71.4981 -4.16281 2.27088 20.8562 1.32004 -121.069 30.7494 152.505 174.759 75.9004 -147.147 0.522241 -14.8723 -20.8104 -60.3422 34.9137 -144.686 23.2771 -3.10873 -96.462 0.420957 0.000574801 0.358661 -2.16778 6.87547 45.8505 -126.644 -4.06503 99.7004 7.6104 -2.57657 71.4361 0.58676 0.000331143 0.0646654 -49.7461 10.7603 107.163 -3.53571 51.8059 -2.36767 1.83051 -20.174 -1.62421 3.58476 -10.087 11.7407 -42.6998 -14.2051 80.9734 0.981223 27.7209 5.27123 0.661648 8.05247 -0.600863 1.09188 -7.33376 -2.14626 
73.1912 92.3303 13.9989 73.4122 -38.1408 -8.60553 -70.1915 0 88.8779 86.0979 71.4521 -3.60454 2.52784 20.7922 1.39155 -121.797 30.9382 152.143 174.744 76.0652 -147.294 0.546419 -14.7619 -20.5256 -59.5721 35.0936 -144.693 22.8078 -2.96944 -96.301 0.420957 0.000574801 0.358661 -2.17135 6.82568 46.1273 -126.444 -4.31373 99.067 7.92951 -2.69241 71.3761 0.58676 0.000331143 0.0646654 -49.6957 11.1041 107.034 -3.4965 51.9619 -1.97658 1.71693 -20.7297 -1.66942 3.34084 -9.50347 10.6029 -43.2089 -13.8738 80.8546 0.815637 27.3186 4.58147 1.37661 6.91625 -0.645314 0.936967 -5.69685 -2.27493 
